<?xml version="1.0" encoding="UTF-8"?>
<svg id="Layer_1" data-name="Layer 1" xmlns="http://www.w3.org/2000/svg" xmlns:xlink="http://www.w3.org/1999/xlink" viewBox="0 0 75 28">
  <defs>
    <style>
      .cls-1 {
        fill: url(#radial-gradient-8);
      }

      .cls-1, .cls-2, .cls-3, .cls-4, .cls-5, .cls-6, .cls-7, .cls-8, .cls-9, .cls-10, .cls-11 {
        stroke-width: 0px;
      }

      .cls-2 {
        fill: url(#radial-gradient-2);
      }

      .cls-3 {
        fill: url(#radial-gradient-7);
      }

      .cls-4 {
        fill: url(#radial-gradient-5);
      }

      .cls-5 {
        fill: url(#radial-gradient);
      }

      .cls-6 {
        fill: url(#radial-gradient-10);
      }

      .cls-7 {
        fill: url(#radial-gradient-6);
      }

      .cls-8 {
        fill: url(#radial-gradient-9);
      }

      .cls-9 {
        fill: url(#radial-gradient-3);
      }

      .cls-10 {
        fill: url(#radial-gradient-11);
      }

      .cls-11 {
        fill: url(#radial-gradient-4);
      }
    </style>
    <radialGradient id="radial-gradient" cx="10.7" cy="38.37" fx="10.7" fy="38.37" r="82.9" gradientTransform="translate(2.53 34.45) scale(1.01 -1.16)" gradientUnits="userSpaceOnUse">
      <stop offset="0" stop-color="#1a1a1a"/>
      <stop offset="0" stop-color="#181818"/>
      <stop offset="1" stop-color="#000"/>
    </radialGradient>
    <radialGradient id="radial-gradient-2" cx="10.7" cy="38.37" fx="10.7" fy="38.37" r="82.9" xlink:href="#radial-gradient"/>
    <radialGradient id="radial-gradient-3" cx="10.7" cy="18.67" fx="10.7" fy="18.67" r="62.9" xlink:href="#radial-gradient"/>
    <radialGradient id="radial-gradient-4" cx="10.7" fx="10.7" r="82.9" xlink:href="#radial-gradient"/>
    <radialGradient id="radial-gradient-5" cx="10.7" fx="10.7" r="82.9" xlink:href="#radial-gradient"/>
    <radialGradient id="radial-gradient-6" cx="10.7" fx="10.7" r="82.9" xlink:href="#radial-gradient"/>
    <radialGradient id="radial-gradient-7" cx="4.4" cy="24.77" fx="4.4" fy="24.77" r="2.3" xlink:href="#radial-gradient"/>
    <radialGradient id="radial-gradient-8" cx="-7.74" cy="11.93" fx="-7.74" fy="11.93" r="10.54" gradientTransform="translate(9.29 2.87) scale(.83 .93)" xlink:href="#radial-gradient"/>
    <radialGradient id="radial-gradient-9" cx="4.8" cy="15.17" fx="4.8" fy="15.17" r="4.4" xlink:href="#radial-gradient"/>
    <radialGradient id="radial-gradient-10" cx="-1.4" cy="15.07" fx="-1.4" fy="15.07" r="3.4" xlink:href="#radial-gradient"/>
    <radialGradient id="radial-gradient-11" cx="-1.7" cy="25.47" fx="-1.7" fy="25.47" r=".6" xlink:href="#radial-gradient"/>
  </defs>
  <path class="cls-5" d="M18.04,16.89h.81l1.32,3.7,1.32-3.7h.81l-2.03,5.55-2.03-5.55h-.2Z"/>
  <path class="cls-2" d="M32.23,16.89v.81h-1.82v1.39h1.82v.81h-1.82v1.62h1.82v.81h-2.53v-5.21h2.53v-.23Z"/>
  <path class="cls-9" d="M40.14,16.78h.71v4.63h2.84v.81h-3.55v-5.44Z"/>
  <path class="cls-11" d="M50.57,22.21v-2.31l-1.52-3.01h.81l1.01,2.08,1.11-2.08h.81l-1.52,3.01v2.31s-.71,0-.71,0Z"/>
  <path class="cls-4" d="M61.01,22.21h-.71v-5.67l3.34,4.05v-3.7h.71v5.55l-3.34-4.05v3.82Z"/>
  <path class="cls-7" d="M71.66,22.21h-.71v-5.67l3.34,4.05v-3.7h.71v5.55l-3.34-4.05v3.82Z"/>
  <g>
    <g>
      <path class="cls-3" d="M10.03,3.93v3.59h-.2v-.58c0-.93-.71-1.62-1.62-1.62h-4.16v-.93h3.24c.91,0,1.82-.12,2.74-.46h0Z"/>
      <g>
        <path class="cls-1" d="M2.84,28v-1.62c-.1-2.55-.2-5.09-.3-7.64,0-1.85-.2-3.7-.2-5.67,0-2.55-.2-5.09-.2-7.64V.93c0-.58.41-.93.91-.93s.81.46.81,1.04v2.55c-.1,3.36-.2,6.71-.3,10.07-.1,3.36-.2,6.6-.3,9.95,0,1.5,0,2.89-.1,4.4h-.3ZM3.24,2.55h0v-1.04c0-.23-.1-.46-.41-.46-.2,0-.41.23-.41.46v2.2c0,.35.1.46.41.46.2,0,.3-.23.3-.46v-1.04l.1-.12Z"/>
        <path class="cls-8" d="M3.85,21.64h3.24c.91,0,1.72-.23,2.43-.93.61-.58,1.01-1.27,1.32-1.97,0-.23.1-.35.2-.58,0-.12.1-.23.3-.12-.2.69-.3,1.27-.51,1.85-.2.81-.41,1.62-.71,2.43,0,0,0,.12-.2.12H3.45c.1-3.59.2-7.29.3-10.88h0v1.5h3.45c.91,0,1.52-.69,1.52-1.74v-.23h.2v4.63h-.2v-.46c0-.81-.61-1.39-1.32-1.39h-3.55v7.75Z"/>
        <path class="cls-6" d="M0,22.45v-.23h.2c.81,0,1.52-.69,1.52-1.74v-8.91h0c.2,3.59.3,7.29.51,10.88,0,0-2.23,0-2.23,0Z"/>
      </g>
    </g>
    <path class="cls-10" d="M0,4.63v-.23h1.52v1.04c-.41-.69-.91-.93-1.52-.81Z"/>
  </g>
</svg>