<?xml version="1.0" encoding="UTF-8"?>
<svg id="Layer_1" xmlns="http://www.w3.org/2000/svg" version="1.1" viewBox="0 0 75 28">
  <!-- Generator: Adobe Illustrator 30.4.0, SVG Export Plug-In . SVG Version: 2.1.4 Build 226)  -->
  <defs>
    <style>
      .st0 {
        fill: #184d29;
      }
    </style>
  </defs>
  <g>
    <path class="st0" d="M2.82,23.4h-.5v1.85h-.33v-1.85h-.5v-.31h1.32v.31Z"/>
    <path class="st0" d="M4.57,23.09v.86h.93v-.86h.33v2.16h-.33v-1h-.93v1h-.33v-2.16h.33Z"/>
    <path class="st0" d="M8.67,23.09v.31h-.86v.55h.84v.31h-.84v.68h.86v.31h-1.19v-2.16h1.19Z"/>
    <path class="st0" d="M12.41,23.09v.86h.93v-.86h.33v2.16h-.33v-1h-.93v1h-.33v-2.16h.33Z"/>
    <path class="st0" d="M16.5,23.09v.31h-.86v.55h.84v.31h-.84v.68h.86v.31h-1.19v-2.16h1.19Z"/>
    <path class="st0" d="M18.06,23.09h.39c.26,0,.45.04.57.13.17.11.26.28.26.51,0,.15-.04.28-.13.39-.09.11-.2.18-.35.21l.67.92h-.4l-.62-.88h-.06v.88h-.33v-2.16ZM18.39,23.39v.69h.1s.06,0,.08,0,.07,0,.12-.02c.05-.01.09-.03.13-.05.04-.02.07-.06.09-.11.03-.05.04-.1.04-.17,0-.22-.15-.33-.45-.33h-.11Z"/>
    <path class="st0" d="M21.14,23.37c.21-.21.48-.32.8-.32s.59.11.8.32c.21.21.32.48.32.8s-.11.59-.32.8c-.21.21-.48.32-.8.32s-.59-.11-.8-.32c-.21-.21-.32-.48-.32-.8s.11-.59.32-.8ZM21.37,24.76c.15.15.34.23.57.23s.42-.08.57-.23c.15-.15.22-.35.22-.59s-.07-.44-.22-.59c-.15-.15-.34-.23-.57-.23s-.42.08-.57.23c-.15.15-.22.35-.22.59s.07.44.22.59Z"/>
    <path class="st0" d="M26.91,25.25v-.93l-.71-1.23h.38l.5.87.5-.87h.38l-.71,1.23v.93h-.33Z"/>
    <path class="st0" d="M29.46,23.37c.21-.21.48-.32.8-.32s.59.11.8.32c.21.21.32.48.32.8s-.11.59-.32.8c-.21.21-.48.32-.8.32s-.59-.11-.8-.32c-.21-.21-.32-.48-.32-.8s.11-.59.32-.8ZM29.69,24.76c.15.15.34.23.57.23s.42-.08.57-.23c.15-.15.22-.35.22-.59s-.07-.44-.22-.59c-.15-.15-.34-.23-.57-.23s-.42.08-.57.23c-.15.15-.22.35-.22.59s.07.44.22.59Z"/>
    <path class="st0" d="M32.93,23.09h.33v1.3c0,.17.02.29.07.37.04.06.09.11.16.16.07.04.15.07.24.07s.17-.02.24-.07c.07-.04.13-.1.16-.16.05-.08.07-.2.07-.37v-1.3h.33v1.39c0,.23-.07.41-.2.56-.16.17-.36.25-.6.25s-.44-.08-.6-.25c-.13-.15-.2-.33-.2-.56v-1.39Z"/>
    <path class="st0" d="M36.17,23.09h.39c.26,0,.45.04.57.13.17.11.26.28.26.51,0,.15-.04.28-.13.39-.09.11-.2.18-.35.21l.67.92h-.4l-.62-.88h-.06v.88h-.33v-2.16ZM36.51,23.39v.69h.1s.06,0,.08,0,.07,0,.12-.02c.05-.01.09-.03.13-.05.04-.02.07-.06.09-.11.03-.05.04-.1.04-.17,0-.22-.15-.33-.45-.33h-.11Z"/>
    <path class="st0" d="M42,24.43v-.3h.89v.02c0,.38-.11.67-.32.88-.19.18-.44.28-.74.28s-.55-.1-.74-.3c-.21-.22-.32-.49-.32-.82,0-.16.03-.31.09-.46.06-.14.13-.26.23-.35s.22-.18.36-.23c.14-.06.29-.09.46-.09.21,0,.4.05.56.14.15.08.27.19.35.32l-.26.18c-.08-.11-.17-.19-.27-.25-.11-.06-.23-.09-.38-.09-.23,0-.42.07-.57.22-.07.07-.13.16-.17.27-.04.11-.06.22-.06.34,0,.23.07.43.22.59.14.14.32.22.54.22.19,0,.35-.06.48-.19.11-.1.17-.23.18-.37h-.54Z"/>
    <path class="st0" d="M44.44,23.09h.33v1.3c0,.17.02.29.07.37.04.06.09.11.16.16.07.04.15.07.24.07s.17-.02.24-.07c.07-.04.13-.1.16-.16.05-.08.07-.2.07-.37v-1.3h.33v1.39c0,.23-.07.41-.2.56-.16.17-.36.25-.6.25s-.44-.08-.6-.25c-.13-.15-.2-.33-.2-.56v-1.39Z"/>
    <path class="st0" d="M48.78,23.4h-.5v1.85h-.33v-1.85h-.5v-.31h1.32v.31Z"/>
    <path class="st0" d="M52.05,23.09h.45c.17,0,.32.01.45.04.13.03.25.08.36.17.13.1.23.22.31.38s.11.32.11.5c0,.38-.14.67-.43.87-.12.08-.24.14-.36.17-.12.03-.27.04-.43.04h-.45v-2.16ZM52.38,23.4v1.54h.14c.25,0,.44-.05.57-.15.2-.15.29-.35.29-.62,0-.13-.03-.26-.08-.37-.06-.11-.12-.2-.21-.26-.14-.1-.33-.15-.58-.15h-.14Z"/>
    <path class="st0" d="M56.46,23.09v.31h-.86v.55h.84v.31h-.84v.68h.86v.31h-1.19v-2.16h1.19Z"/>
    <path class="st0" d="M59.21,23.41l-.27.16c-.02-.05-.05-.1-.1-.14-.06-.05-.14-.08-.23-.08-.1,0-.17.02-.23.07s-.08.11-.08.18c0,.11.08.2.23.26l.22.09c.34.14.51.35.51.64,0,.21-.07.37-.2.5-.13.13-.3.19-.5.19s-.38-.07-.51-.22c-.11-.12-.17-.26-.18-.42l.33-.07c0,.1.03.2.09.28.07.09.16.13.28.13.1,0,.19-.03.25-.1.07-.07.1-.15.1-.26,0-.1-.03-.18-.09-.23-.06-.05-.13-.1-.23-.14l-.21-.09c-.29-.12-.44-.31-.44-.55,0-.16.06-.29.17-.4.11-.11.27-.17.46-.17.17,0,.32.05.43.15.07.06.12.13.17.22Z"/>
    <path class="st0" d="M62.01,23.09v.31h-.86v.55h.84v.31h-.84v.68h.86v.31h-1.19v-2.16h1.19Z"/>
    <path class="st0" d="M63.56,23.09h.39c.26,0,.45.04.57.13.17.11.26.28.26.51,0,.15-.04.28-.13.39-.09.11-.2.18-.35.21l.67.92h-.4l-.62-.88h-.06v.88h-.33v-2.16ZM63.89,23.39v.69h.1s.06,0,.08,0,.07,0,.12-.02c.05-.01.09-.03.13-.05.04-.02.07-.06.09-.11.03-.05.04-.1.04-.17,0-.22-.15-.33-.45-.33h-.11Z"/>
    <path class="st0" d="M66.17,23.09h.36l.6,1.51.6-1.51h.36l-.96,2.3-.96-2.3Z"/>
    <path class="st0" d="M70.69,23.09v.31h-.86v.55h.84v.31h-.84v.68h.86v.31h-1.19v-2.16h1.19Z"/>
    <path class="st0" d="M73.44,23.41l-.27.16c-.02-.05-.05-.1-.1-.14-.06-.05-.14-.08-.23-.08-.1,0-.17.02-.23.07s-.08.11-.08.18c0,.11.08.2.23.26l.22.09c.34.14.51.35.51.64,0,.21-.07.37-.2.5-.13.13-.3.19-.5.19s-.38-.07-.51-.22c-.11-.12-.17-.26-.18-.42l.33-.07c0,.1.03.2.09.28.07.09.16.13.28.13.1,0,.19-.03.25-.1.07-.07.1-.15.1-.26,0-.1-.03-.18-.09-.23-.06-.05-.13-.1-.23-.14l-.21-.09c-.29-.12-.44-.31-.44-.55,0-.16.06-.29.17-.4.11-.11.27-.17.46-.17.17,0,.32.05.43.15.07.06.12.13.17.22Z"/>
  </g>
  <g>
    <path class="st0" d="M1.5,11.41h6.82v2.68h-3.13v.88h3.13v2.59h-3.13v3.33H1.5v-9.48Z"/>
    <path class="st0" d="M9.09,11.41h6.83v2.73h-3.14v.78h3.13v2.33h-3.13v.9h3.35v2.75h-7.04v-9.48Z"/>
    <path class="st0" d="M50.99,20.9l4.71-9c.16-.32.46-.53.9-.64.13-.03.28-.05.47-.05s.39.05.61.16.39.27.52.5l5.06,9.04h-4.82l-.37-.94h-2.57l-.32.94h-4.19ZM55.8,18.07h1.92l-.91-2.57-1.01,2.57Z"/>
    <path class="st0" d="M64.02,11.41h.96l5.18,3.69v-3.69h3.34v9.48h-1.28l-4.88-3.26v3.26h-3.33v-9.48Z"/>
    <g>
      <path class="st0" d="M30.94,10.07c1.01.82,1.65-.21,1.96.12.11.12.1.4-.06.52-.65.53-1.68.48-2.28-.11-.12-.12-.18-.36-.12-.46.07-.14.38-.18.51-.07Z"/>
      <path class="st0" d="M33.23,8.35c.14.5-.04,1.06-.39,1.14s-.46-.73-.1-1.18c.04-.05.18-.12.24-.13.07-.01.22.1.24.17Z"/>
      <path class="st0" d="M31.33,8.31c.15.49-.05,1.08-.37,1.08-.29,0-.39-.69-.11-1.14.03-.05.18-.13.24-.13.07,0,.21.12.24.19Z"/>
    </g>
    <path class="st0" d="M31.07,20.81c-.88.1-1.95.19-2.41-.27-.09-.09-.12-.44-.03-.53l.42-.45-.71-2.23c-.35-1.12-.6-2.22-.53-3.44-1.14-.1-2.24-.32-3.3-.8-.62-.29-1.09-.94-.91-1.68.25-1.03.75-2,1.22-2.96.25-.5.64-.82,1.08-.91.57-.12,1.18,0,1.51.49.36.54.18,1.43-.42,1.76-.24.13-.63.12-.94.14l-.14,1.05c.95-.59,1.83-.6,2.79-.16.14-1.03.36-1.91.73-2.81.81-1.94,2.99-2.79,4.93-1.94.44-.85,1.08-1.5,1.94-1.93.21-.1.36-.21.52-.42l-1.07.5c-.46.21-.81.55-1.2.91-.06-.46,0-.98.25-1.32.76-.99,2.19-.59,3.4-1.21-.03.98-.32,1.92-.98,2.53-.61.56-1.4.7-2.18.49l-.41.59c1.44,1.2.98,2.92.64,4.72.73.11,1.37.35,1.94.77l2.07,1.53c1.11.82,2.33,1.19,3.77,1.31-.01.3-.14.56-.29.81-1.23,1.94-2.64,1.2-3.56,2.21-.4.44-.77.93-1.28,1.24-.89.55-1.95.46-2.9.1-.14.78.52,1.26.38,1.69-.19.55-1.49.44-2.34.06l-.79-2.2-1.03-.04.33,1.75c.06.32-.16.61-.49.64ZM34.08,17.39c-.3-.35-.61-.63-.51-1.13.09-.43.58-.79.64-1.22l.2-1.44c.01-.09.27-.21.36-.18.45.13.27.97,1.67,1.32l-1.15.94c.2.38.28.68.32,1.08,1.21-.37,2.96-1.45,2.43-2.38-.59-1.05-1.46-1.93-2.51-2.51s-1.32.67-1.67.18c-.25-.36.7-.69.87-1.43s.3-1.55.29-2.33c-.02-.98-.71-1.76-1.66-1.91-1.02-.17-2.07.13-2.78.88-1.07,1.15-1.04,2.71-1.42,4.13-.9,1.44-.95,3.7-.45,5.22l1,3.08c-.11.19-.26.34-.5.59h1.74s-.34-1.96-.34-1.96l-.36-.21c-.08-.04-.15-.28-.12-.36.12-.3.89.1,2.07.11.38,0,.56.19.67.52l.63,1.87,1.22.13c-.49-1-.3-2.05-.64-3Z"/>
    <g>
      <path class="st0" d="M23.04,11.26s.02-.08.03-.12c-.76-.08-1.52-.03-2.29,0l-1.77.08-2.11.16v9.57s3.91-.02,3.91-.02l.02-2.64,1.63,2.65,4.73-.03-2.55-3.38c.57-.36,1.04-.79,1.42-1.34.26-.51.46-1.02.41-1.61-.02-.11-.04-.22-.06-.32-.79-.15-1.48-.37-2.13-.67-.95-.44-1.46-1.4-1.23-2.34ZM22.61,15.24c-.46.59-1.14.88-1.8,1.12v-2.25s1.18-.48,1.18-.48c.17-.07.61-.04.73.1.35.44.25,1.05-.11,1.51Z"/>
      <path class="st0" d="M48.9,11.36l-4.67,4.33-.69-.65c-.08.25-.19.46-.3.63-.85,1.34-1.81,1.59-2.58,1.8-.46.12-.78.21-1.04.49-.08.09-.16.18-.24.27-.33.37-.67.76-1.12,1.05v1.7s3.34,0,3.34,0v-1.3c.38-.07.61-.76,0-1.07l.03-.56,2.3,2.52,2.37-2.65.03,3.07h3.91s0-9.58,0-9.58l-1.33-.02ZM39.55,20.05c-.31,0-.56-.25-.56-.56s.25-.56.56-.56.56.25.56.56-.25.56-.56.56ZM41.75,19.15c0,.19-.15.34-.34.34s-.34-.15-.34-.34.15-.34.34-.34.34.15.34.34Z"/>
      <path class="st0" d="M39.71,11.42h-1.45s0,.36,0,.36l1.36,1c.78.57,1.63.92,2.69,1.1l-2.6-2.46Z"/>
    </g>
    <path class="st0" d="M43.05,12.27c0,.38-.31.7-.7.7s-.7-.31-.7-.7.31-.7.7-.7.7.31.7.7ZM42.86,12.27c0-.28-.23-.51-.51-.51s-.51.23-.51.51.23.51.51.51.51-.23.51-.51Z"/>
    <path class="st0" d="M37.1,20.33c0,.29-.23.52-.52.52s-.52-.23-.52-.52.23-.52.52-.52.52.23.52.52ZM36.95,20.32c0-.2-.16-.36-.36-.36s-.36.16-.36.36.16.36.36.36.36-.16.36-.36Z"/>
    <path class="st0" d="M27.66,16.26c0,.29-.23.52-.52.52s-.52-.23-.52-.52.23-.52.52-.52.52.23.52.52ZM27.5,16.25c0-.2-.16-.36-.36-.36s-.36.16-.36.36.16.36.36.36.36-.16.36-.36Z"/>
    <path class="st0" d="M27.25,15.99s-.11-.04-.23.04-.12.19-.12.19c0,0,.1-.19.35-.23Z"/>
    <path class="st0" d="M36.62,20.07s-.08-.03-.17.03-.09.14-.09.14c0,0,.08-.14.26-.17Z"/>
    <path class="st0" d="M41.42,18.88s-.08-.03-.17.03-.09.14-.09.14c0,0,.08-.14.26-.17Z"/>
    <path class="st0" d="M42.49,11.88s-.17-.05-.34.06-.17.28-.17.28c0,0,.15-.28.51-.34Z"/>
    <path class="st0" d="M39.67,19.06s-.17-.05-.34.06-.17.28-.17.28c0,0,.15-.28.51-.34Z"/>
  </g>
</svg>