<?xml version="1.0" encoding="UTF-8"?>
<svg id="Layer_1" xmlns="http://www.w3.org/2000/svg" version="1.1" xmlns:xlink="http://www.w3.org/1999/xlink" viewBox="0 0 75 28">
  <!-- Generator: Adobe Illustrator 30.4.0, SVG Export Plug-In . SVG Version: 2.1.4 Build 226)  -->
  <defs>
    <style>
      .st0 {
        fill: #444445;
        font-family: JosefinSans-Regular, 'Josefin Sans';
        font-size: 5.83px;
      }

      .st1 {
        fill: url(#radial-gradient);
      }

      .st2 {
        fill: url(#radial-gradient1);
      }

      .st3 {
        fill: url(#radial-gradient2);
      }
    </style>
    <radialGradient id="radial-gradient" cx="-552.05" cy="435.54" fx="-552.05" fy="435.54" r="36.73" gradientTransform="translate(240.81 -148.19) scale(.37)" gradientUnits="userSpaceOnUse">
      <stop offset="0" stop-color="#6979ba"/>
      <stop offset=".9" stop-color="#764c9e"/>
    </radialGradient>
    <radialGradient id="radial-gradient1" cx="-552.05" cy="435.54" fx="-552.05" fy="435.54" r="36.73" xlink:href="#radial-gradient"/>
    <radialGradient id="radial-gradient2" cx="-552.05" cy="435.54" fx="-552.05" fy="435.54" r="36.73" xlink:href="#radial-gradient"/>
  </defs>
  <text class="st0" transform="translate(6.25 25.62)"><tspan x="0" y="0" xml:space="preserve">ARSHMAHI  ADLINK</tspan></text>
  <g>
    <polygon class="st1" points="33.04 5.08 37.6 12.24 41.94 5.41 41.94 12.79 44.55 8.23 44.55 1.03 41.64 1.02 37.6 7.37 33.56 1.02 30.46 1.02 30.47 1.03 30.46 1.03 30.46 8.23 33.07 12.79 33.04 5.08"/>
    <path class="st2" d="M51.08,6.23l4.65,8.05h-6.13c-.38.67-.98,1.75-1.47,2.6h12.12L51.08,1l-9.15,15.88h3l6.15-10.65Z"/>
    <path class="st3" d="M25.41,14.27h-6.13l4.65-8.05,6.15,10.65h3L23.92,1l-9.17,15.88h12.12c-.49-.85-1.09-1.93-1.47-2.6Z"/>
  </g>
</svg>